HIERARCHY
ROOT joint_Root
{
	OFFSET 0.0 0.0 0.0
	CHANNELS 6 Xposition Yposition Zposition Zrotation Xrotation Yrotation 
	JOINT Hips
	{
		OFFSET 4.5925 91.4895 -427.239
		CHANNELS 6 Xposition Yposition Zposition Zrotation Xrotation Yrotation 
		JOINT Spine
		{
			OFFSET 15.7357 0.0 0.0
			CHANNELS 6 Xposition Yposition Zposition Zrotation Xrotation Yrotation 
			JOINT Chest
			{
				OFFSET 8.98455 -0.406207 0.0
				CHANNELS 6 Xposition Yposition Zposition Zrotation Xrotation Yrotation 
				JOINT Neck
				{
					OFFSET 16.3773 0.0 0.0
					CHANNELS 6 Xposition Yposition Zposition Zrotation Xrotation Yrotation 
					JOINT Head
					{
						OFFSET 6.45672 0.0 0.0
						CHANNELS 6 Xposition Yposition Zposition Zrotation Xrotation Yrotation 
						End Site
						{
							OFFSET 0.0 0.0 0.0
						}
					}
				}
				JOINT Shoulder_L
				{
					OFFSET 12.9942 -0.242716 4.98039
					CHANNELS 6 Xposition Yposition Zposition Zrotation Xrotation Yrotation 
					JOINT UpperArm_L
					{
						OFFSET 5.34809 0.0 0.0
						CHANNELS 6 Xposition Yposition Zposition Zrotation Xrotation Yrotation 
						JOINT LowerArm_L
						{
							OFFSET 24.3286 1.87007e-05 0.0
							CHANNELS 6 Xposition Yposition Zposition Zrotation Xrotation Yrotation 
							JOINT Hand_L
							{
								OFFSET 22.2916 0.0 0.0
								CHANNELS 6 Xposition Yposition Zposition Zrotation Xrotation Yrotation 
								End Site
								{
									OFFSET 0.0 0.0 0.0
								}
							}
						}
					}
				}
				JOINT Shoulder_R
				{
					OFFSET 12.9945 -0.242716 -4.98039
					CHANNELS 6 Xposition Yposition Zposition Zrotation Xrotation Yrotation 
					JOINT UpperArm_R
					{
						OFFSET -5.34813 0.0 0.0
						CHANNELS 6 Xposition Yposition Zposition Zrotation Xrotation Yrotation 
						JOINT LowerArm_R
						{
							OFFSET -24.3289 0.000322201 0.0
							CHANNELS 6 Xposition Yposition Zposition Zrotation Xrotation Yrotation 
							JOINT Hand_R
							{
								OFFSET -22.2915 -0.000108084 0.0
								CHANNELS 6 Xposition Yposition Zposition Zrotation Xrotation Yrotation 
								End Site
								{
									OFFSET 0.0 0.0 0.0
								}
							}
						}
					}
				}
			}
		}
		JOINT UpperLeg_L
		{
			OFFSET -2.19248 -6.46944 0.0
			CHANNELS 6 Xposition Yposition Zposition Zrotation Xrotation Yrotation 
			JOINT LowerLeg_L
			{
				OFFSET 39.0811 0.0 -1.23785e-05
				CHANNELS 6 Xposition Yposition Zposition Zrotation Xrotation Yrotation 
				JOINT Foot_L
				{
					OFFSET 40.9854 0.0 -1.26872e-05
					CHANNELS 6 Xposition Yposition Zposition Zrotation Xrotation Yrotation 
					JOINT Toes_L
					{
						OFFSET 11.7543 0.0 0.0
						CHANNELS 6 Xposition Yposition Zposition Zrotation Xrotation Yrotation 
						End Site
						{
							OFFSET 0.0 0.0 0.0
						}
					}
				}
			}
		}
		JOINT UpperLeg_R
		{
			OFFSET -2.19251 6.46944 0.0
			CHANNELS 6 Xposition Yposition Zposition Zrotation Xrotation Yrotation 
			JOINT LowerLeg_R
			{
				OFFSET -39.0811 -0.00228153 -0.0401928
				CHANNELS 6 Xposition Yposition Zposition Zrotation Xrotation Yrotation 
				JOINT Foot_R
				{
					OFFSET -40.9854 0.0 0.0
					CHANNELS 6 Xposition Yposition Zposition Zrotation Xrotation Yrotation 
					JOINT Toes_R
					{
						OFFSET -11.7543 0.0 0.0
						CHANNELS 6 Xposition Yposition Zposition Zrotation Xrotation Yrotation 
						End Site
						{
							OFFSET 0.0 0.0 0.0
						}
					}
				}
			}
		}
	}
}
MOTION
Frames:	4
Frame Time:	0.0333333
0.000000 0.000000 0.000000 0.000000 0.000000 -0.000000 1.978040 90.399000 -0.686895 92.654200 -7.199960 10.085800 15.735700 0.000005 -0.000001 87.397300 82.635600 -88.728900 8.984550 -0.406207 -0.000000 6.941760 -0.657017 -2.620400 16.377300 -0.000001 -0.000001 3.060700 -4.921730 -3.938320 6.456720 -0.000001 -0.000000 -10.789900 -4.208240 -11.272800 12.994200 -0.242716 4.980390 -92.410000 8.331450 -73.803700 5.348090 -0.000007 -0.000001 -60.555100 35.117900 -17.695000 24.328600 0.000019 0.000005 10.225000 23.340200 -24.478600 22.291600 -0.000001 0.000005 4.787180 5.333410 -0.887935 12.994500 -0.242716 -4.980390 88.558300 8.943340 -80.803800 -5.348130 -0.000001 -0.000004 -62.066900 35.419400 -12.654500 -24.328900 0.000322 -0.000009 0.865977 1.476890 -30.424500 -22.291500 -0.000108 -0.000004 13.059700 5.417580 -3.517730 -2.192480 -6.469440 -0.000000 -179.272000 -17.203500 -0.311492 39.081100 -0.000007 -0.000012 -0.148264 0.245517 31.127400 40.985400 -0.000006 -0.000013 1.049790 1.081740 -70.936900 11.754300 -0.000000 0.000003 -0.000157 -0.001507 -16.634800 -2.192510 6.469440 -0.000001 170.481000 14.007400 177.514000 -39.081100 -0.002282 -0.040193 -0.098931 0.149995 34.275000 -40.985400 0.000008 0.000006 2.801370 9.192930 -71.979300 -11.754300 -0.000006 -0.000006 -0.003028 -0.040922 -18.237400
0.000000 0.000000 0.000000 0.000000 0.000000 -0.000000 1.746120 90.406000 -0.677930 92.529500 -6.941180 10.289900 15.735700 0.000005 -0.000001 86.802800 82.425500 -88.045300 8.984550 -0.406207 -0.000000 7.352140 -0.837289 -2.428550 16.377300 -0.000001 -0.000001 3.478130 -5.072000 -3.642490 6.456720 -0.000001 -0.000000 -10.522600 -4.274120 -10.923400 12.994200 -0.242716 4.980390 -92.444300 8.435310 -73.775100 5.348090 -0.000007 -0.000001 -59.055800 34.286000 -18.646600 24.328600 0.000019 0.000005 10.990700 23.609100 -25.870000 22.291600 -0.000001 0.000005 2.657040 5.336070 -0.962812 12.994500 -0.242716 -4.980390 88.527600 8.857210 -80.522400 -5.348130 -0.000001 -0.000004 -60.529700 33.090100 -13.731000 -24.328900 0.000322 -0.000009 0.652441 1.015530 -32.768100 -22.291500 -0.000108 -0.000004 13.215600 5.414300 -3.408590 -2.192480 -6.469440 -0.000000 -178.934000 -16.963900 -0.086539 39.081100 -0.000007 -0.000012 -0.153082 0.253056 31.171500 40.985400 -0.000006 -0.000013 0.906173 1.195370 -70.925800 11.754300 -0.000000 0.000003 -0.000166 -0.001586 -16.637700 -2.192510 6.469440 -0.000001 170.572000 14.405500 177.921000 -39.081100 -0.002282 -0.040193 -0.115119 0.174622 34.141300 -40.985400 0.000008 0.000006 2.670610 9.367480 -71.953100 -11.754300 -0.000006 -0.000006 -0.002851 -0.038901 -18.155100
0.000000 0.000000 0.000000 0.000000 0.000000 -0.000000 1.483880 90.418700 -0.687545 92.382200 -6.591510 10.490800 15.735700 0.000005 -0.000001 86.017300 82.235500 -87.141200 8.984550 -0.406207 -0.000000 7.716940 -1.073750 -2.173100 16.377300 -0.000001 -0.000001 4.070160 -5.270190 -3.475550 6.456720 -0.000001 -0.000000 -10.034800 -4.413500 -10.774200 12.994200 -0.242716 4.980390 -92.460100 8.439060 -73.682700 5.348090 -0.000007 -0.000001 -56.902500 33.078000 -20.362100 24.328600 0.000019 0.000005 11.647600 23.577400 -27.264500 22.291600 -0.000001 0.000005 1.892400 5.325350 -0.650440 12.994500 -0.242716 -4.980390 88.502400 8.730220 -80.226800 -5.348130 -0.000001 -0.000004 -58.481300 30.935400 -15.408500 -24.328900 0.000322 -0.000009 0.400488 0.570740 -35.142900 -22.291500 -0.000108 -0.000004 13.490700 5.411240 -3.306450 -2.192480 -6.469440 -0.000000 -178.546000 -16.746300 0.115912 39.081100 -0.000007 -0.000012 -0.158566 0.261687 31.213500 40.985400 -0.000006 -0.000013 0.778739 1.417340 -70.883900 11.754300 -0.000000 0.000003 -0.000164 -0.001567 -16.637000 -2.192510 6.469440 -0.000001 170.706000 14.862400 178.350000 -39.081100 -0.002282 -0.040193 -0.127675 0.194174 33.999300 -40.985400 0.000008 0.000006 2.748480 9.436080 -71.969600 -11.754300 -0.000006 -0.000006 -0.002950 -0.040033 -18.201100
0.000000 0.000000 0.000000 0.000000 0.000000 -0.000000 1.185850 90.443700 -0.739528 92.194700 -6.182700 10.587900 15.735700 0.000005 -0.000001 85.288700 82.148200 -86.252000 8.984550 -0.406207 -0.000000 7.875930 -1.285350 -1.836110 16.377300 -0.000001 -0.000001 4.890200 -5.505900 -3.407720 6.456720 -0.000001 -0.000000 -9.185420 -4.679580 -10.917200 12.994200 -0.242716 4.980390 -92.443300 8.366380 -73.656100 5.348090 -0.000007 -0.000001 -54.654500 31.037300 -22.354300 24.328600 0.000019 0.000005 12.400300 23.680600 -28.697200 22.291600 -0.000001 0.000005 2.220290 5.316280 -0.389019 12.994500 -0.242716 -4.980390 88.474600 8.614920 -79.919100 -5.348130 -0.000001 -0.000004 -56.205600 28.680900 -17.228500 -24.328900 0.000322 -0.000009 0.344613 0.448221 -37.636100 -22.291500 -0.000108 -0.000004 13.744300 5.411190 -3.304760 -2.192480 -6.469440 -0.000000 -178.141000 -16.440100 0.180770 39.081100 -0.000007 -0.000012 -0.165815 0.273400 31.236800 40.985400 -0.000006 -0.000013 0.627896 1.652470 -70.789900 11.754300 -0.000000 0.000003 -0.000174 -0.001646 -16.639900 -2.192510 6.469440 -0.000001 170.911000 15.362000 178.697000 -39.081100 -0.002282 -0.040193 -0.148201 0.226649 33.759400 -40.985400 0.000008 0.000006 2.600490 9.540220 -71.862900 -11.754300 -0.000006 -0.000006 -0.002681 -0.036942 -18.075400
